<?xml version="1.0" encoding="UTF-8"?>
<svg version="1.1" xmlns="http://www.w3.org/2000/svg" width="512" height="512">
<path d="M0 0 C33.09139699 32.43775921 56.52414504 80.52047036 57.17904663 127.36058044 C57.18344757 128.0651387 57.18784851 128.76969696 57.19238281 129.49560547 C57.19944244 130.25144424 57.20650208 131.00728302 57.21377563 131.786026 C57.32727526 147.51298203 57.43415074 162.90193581 53.98925781 178.32373047 C53.70719482 179.67869629 53.70719482 179.67869629 53.41943359 181.06103516 C46.23051258 215.15836774 31.03833905 246.92566788 6.98925781 272.32373047 C5.77461476 273.71407661 4.56596222 275.10968608 3.36425781 276.51123047 C-3.14253695 283.93907838 -10.2570017 290.20723399 -18.01074219 296.32373047 C-19.42033203 297.44134766 -19.42033203 297.44134766 -20.85839844 298.58154297 C-46.4966321 318.38819993 -77.16588598 330.88788757 -109.01074219 336.32373047 C-110.81285156 336.66017578 -110.81285156 336.66017578 -112.65136719 337.00341797 C-133.89497446 340.36009184 -156.95899123 339.40707888 -178.01074219 335.32373047 C-178.87280273 335.15744141 -179.73486328 334.99115234 -180.62304688 334.81982422 C-215.99873632 327.7262957 -252.74290145 310.80581526 -278.01074219 284.32373047 C-280.97396186 279.70263227 -280.61759075 274.62054449 -280.01074219 269.32373047 C-278.77729819 265.62339847 -276.80076386 263.06587204 -273.94824219 260.38623047 C-268.55169386 258.43428746 -262.9441544 258.01946087 -257.61230469 260.39013672 C-253.69141003 262.91464258 -250.31335869 265.92748547 -246.88574219 269.07373047 C-213.71572616 299.20220523 -168.32096843 307.82504785 -125.01074219 306.32373047 C-94.08837963 304.241789 -61.86318408 290.90314133 -38.01074219 271.32373047 C-37.45966797 270.87803711 -36.90859375 270.43234375 -36.34082031 269.97314453 C-6.23706712 245.52433271 12.97997184 212.94645025 21.98925781 175.32373047 C22.16859863 174.57784668 22.34793945 173.83196289 22.53271484 173.06347656 C32.0355956 131.21116658 21.58278379 85.20709405 -1.01074219 49.32373047 C-26.29284558 11.14837379 -64.88461009 -14.40911484 -109.69824219 -23.67626953 C-132.74953549 -27.72924418 -158.32645015 -27.65729017 -181.01074219 -21.67626953 C-181.74228516 -21.48371582 -182.47382813 -21.29116211 -183.22753906 -21.09277344 C-187.9012719 -19.81782854 -192.45175515 -18.31405689 -197.01074219 -16.67626953 C-198.23792969 -16.23541016 -199.46511719 -15.79455078 -200.72949219 -15.34033203 C-222.18100741 -7.1833483 -240.04988739 5.02592416 -257.01074219 20.32373047 C-257.7596875 20.99919922 -258.50863281 21.67466797 -259.28027344 22.37060547 C-269.5537036 32.16279552 -277.77860133 44.17967983 -285.01074219 56.32373047 C-285.3790918 56.92926758 -285.74744141 57.53480469 -286.12695312 58.15869141 C-294.78317325 72.58071991 -301.53687156 89.65757326 -304.01074219 106.32373047 C-303.55973145 105.99800049 -303.1087207 105.67227051 -302.64404297 105.33666992 C-302.00450684 104.87478271 -301.3649707 104.41289551 -300.70605469 103.93701172 C-299.98643555 103.41727783 -299.26681641 102.89754395 -298.52539062 102.36206055 C-296.91149256 101.19648582 -295.29755939 100.03095968 -293.68359375 98.86547852 C-289.55485868 95.88392486 -285.42660322 92.90171405 -281.29980469 89.91748047 C-277.58109124 87.22845458 -273.85967048 84.54320655 -270.13720703 81.859375 C-268.04683991 80.34979874 -265.96024515 78.83512209 -263.87402344 77.31982422 C-262.60721745 76.40429205 -261.34029689 75.4889184 -260.07324219 74.57373047 C-259.21327637 73.94591675 -259.21327637 73.94591675 -258.3359375 73.30541992 C-253.45206548 69.78983563 -250.04616095 68.82902401 -244.01074219 69.32373047 C-239.73582611 70.71945867 -236.68913164 72.64534101 -233.51074219 75.82373047 C-231.32524736 80.9232184 -230.61481291 85.91202361 -232.01074219 91.32373047 C-236.17313009 97.6052384 -241.89453297 101.67246939 -248.13574219 105.69873047 C-249.83826717 106.82852866 -251.53878553 107.96135639 -253.23730469 109.09716797 C-254.05875977 109.64598633 -254.88021484 110.19480469 -255.7265625 110.76025391 C-258.75723701 112.83469165 -261.62747919 115.04825042 -264.51074219 117.32373047 C-270.4140608 121.95937329 -276.56156357 126.15930782 -282.78100586 130.35791016 C-288.08010766 133.95299328 -293.23335053 137.68924096 -298.32324219 141.57373047 C-319.72922508 157.75458903 -319.72922508 157.75458903 -327.13183594 156.80029297 C-338.87108314 153.82277081 -345.2156755 140.3056234 -351.80371094 130.88623047 C-354.99381141 126.33201295 -358.24589784 121.82454115 -361.51074219 117.32373047 C-366.21505777 110.83232011 -370.86287049 104.30430466 -375.47143555 97.74462891 C-379.83069553 91.55076573 -384.26771202 85.41443864 -388.73535156 79.29833984 C-393.91883513 72.16861714 -397.32831023 67.44422928 -396.01074219 58.32373047 C-393.82638065 53.95500739 -391.20722201 50.84161836 -387.01074219 48.32373047 C-382.45282065 47.07051664 -378.88975544 47.08535399 -374.32324219 48.32373047 C-367.04109722 52.72049724 -362.68987525 60.45232971 -357.86621094 67.29248047 C-354.18094365 72.51360146 -350.41658249 77.6776384 -346.65307617 82.8425293 C-342.9725069 87.91788898 -339.45310889 93.08404227 -336.01074219 98.32373047 C-334.33516066 93.47336289 -332.81775037 88.6296633 -331.46972656 83.67724609 C-319.91206959 42.04648838 -292.93583931 4.61498377 -258.01074219 -20.67626953 C-257.43807617 -21.09328125 -256.86541016 -21.51029297 -256.27539062 -21.93994141 C-228.35472708 -42.01525866 -195.19303649 -54.16935962 -161.01074219 -57.67626953 C-159.83511719 -57.79873047 -158.65949219 -57.92119141 -157.44824219 -58.04736328 C-98.31654782 -62.95480923 -42.31137599 -40.64198884 0 0 Z " fill="#000000" transform="translate(428.0107421875,115.67626953125)"/>
<path d="M0 0 C11.31865074 9.50291517 17.63565453 21.5863209 19.35546875 36.25 C20.08824291 51.95767167 15.29315162 65.32639529 5.16796875 77.375 C-4.57377022 87.52882607 -16.23823344 92.99418774 -30.25488281 93.47070312 C-46.59065548 93.64381269 -59.64116383 89.56740831 -71.83203125 78.3125 C-81.21166443 68.26014723 -86.4056116 55.11145211 -87.01953125 41.375 C-86.06020883 25.12841064 -79.90630185 11.41818279 -68.08935547 0.30273438 C-48.40346957 -16.71117673 -19.85471899 -15.37914693 0 0 Z M-51.39453125 28.01953125 C-54.80155733 33.70164383 -56.28314587 39.20339608 -55.22265625 45.796875 C-53.49186522 51.74910757 -49.86610332 56.75750123 -44.58203125 60 C-38.57644687 62.81511768 -33.02351019 63.97686767 -26.58203125 62 C-20.08735885 58.92245916 -15.33339861 54.70645793 -12.58203125 48 C-10.74436178 41.54518598 -11.6157046 35.96537015 -14.58203125 30 C-18.41086627 23.61441001 -23.52529223 20.96149489 -30.58203125 19 C-38.45410323 17.687988 -46.69724812 21.76093526 -51.39453125 28.01953125 Z " fill="#000000" transform="translate(320.58203125,215)"/>
</svg>
