<?xml version="1.0" encoding="UTF-8"?>
<svg version="1.1" xmlns="http://www.w3.org/2000/svg" width="512" height="512">
<path d="M0 0 C1.635682 -0.00462025 3.27135984 -0.01098065 4.90702915 -0.01890898 C9.35931828 -0.03547119 13.81126058 -0.02741628 18.26355028 -0.0149641 C23.08163733 -0.00586173 27.89966743 -0.01990891 32.71774292 -0.03088379 C42.13960383 -0.04861853 51.56133689 -0.04485158 60.9832027 -0.03323323 C68.64434017 -0.02417926 76.30544195 -0.02298338 83.96658325 -0.02732849 C85.05926311 -0.02794142 86.15194297 -0.02855436 87.27773434 -0.02918586 C89.49787737 -0.03046483 91.71802039 -0.03176169 93.9381634 -0.03307623 C114.72933901 -0.04446725 135.52044394 -0.03139154 156.31160796 -0.00987476 C174.12989316 0.00799486 191.9480741 0.00489034 209.76635742 -0.0135498 C230.48595742 -0.03498265 251.20549556 -0.04336875 271.92510509 -0.03110075 C274.13682746 -0.02982663 276.34854983 -0.02856914 278.56027222 -0.02732849 C279.64832439 -0.02671139 280.73637655 -0.02609429 281.8574 -0.02545848 C289.5044053 -0.02201283 297.15137117 -0.02781699 304.79837036 -0.0372467 C314.12457765 -0.04849491 323.45065037 -0.04536745 332.77684236 -0.02412373 C337.53015561 -0.01365123 342.28324493 -0.00942627 347.03655624 -0.02272034 C351.39649496 -0.0347293 355.75600436 -0.02794319 360.11590469 -0.00681013 C361.68434921 -0.0023798 363.25283078 -0.0045289 364.82125103 -0.01431328 C386.29929361 -0.13791492 403.51521815 6.44439678 419.22436523 21.37121582 C433.57388221 36.53235706 437.80450497 55.47844657 437.53686523 75.68762207 C436.91769101 94.78393616 425.55036466 110.91748841 416.14233398 126.89074707 C412.12066198 133.7281005 408.1873669 140.61431355 404.26342773 147.50793457 C398.75194102 157.18339502 393.17917291 166.82077157 387.55249023 176.42980957 C383.07176508 184.09367431 378.65848549 191.79479292 374.26342773 199.50793457 C368.72356841 209.22917963 363.12967842 218.91688325 357.47998047 228.5748291 C351.32576032 239.09878082 345.23972777 249.66173594 339.15454102 260.22570801 C336.02662625 265.65453399 332.89484326 271.08112738 329.76342773 276.50793457 C328.51340894 278.6745904 327.26340895 280.84125707 326.01342773 283.00793457 C308.51342773 313.3412679 291.01342773 343.67460124 273.51342773 374.00793457 C272.89419434 375.0813208 272.27496094 376.15470703 271.63696289 377.26062012 C270.39201492 379.4184326 269.14689883 381.5761481 267.90161133 383.73376465 C264.69790123 389.28510049 261.49749143 394.83829998 258.30249023 400.39465332 C255.16997203 405.84200463 252.02351816 411.28113229 248.87182617 416.71740723 C247.46786356 419.15324399 246.08397592 421.59879006 244.70874023 424.05090332 C234.27814131 442.43217767 220.00438897 455.33207538 199.24438477 461.06555176 C181.31706286 465.51466814 162.22443539 462.87509685 146.03686523 454.19543457 C133.11691283 446.33428043 124.2986023 435.49339996 117.07592773 422.38293457 C116.10161427 420.65453591 115.12727865 418.92614907 114.15133667 417.19866943 C113.16006071 415.44134797 112.1737753 413.68128894 111.18774414 411.92102051 C108.27162161 406.74880623 105.26840746 401.62885686 102.26342773 396.50793457 C95.51404632 384.96203845 88.83002356 373.3788952 82.15454102 361.79016113 C79.02662625 356.36133515 75.89484326 350.93474176 72.76342773 345.50793457 C71.51340894 343.34127874 70.26340895 341.17461207 69.01342773 339.00793457 C68.39467773 337.93543457 67.77592773 336.86293457 67.13842773 335.75793457 C1.51342773 222.00793457 1.51342773 222.00793457 -0.36181641 218.75744629 C-1.61092745 216.59236386 -2.86011356 214.42732475 -4.109375 212.2623291 C-7.24859536 206.82177751 -10.38647789 201.38046241 -13.52172852 195.93762207 C-19.54404555 185.48587258 -25.58326564 175.04493909 -31.67407227 164.63293457 C-37.4357985 154.7815829 -43.11539899 144.88481313 -48.7512207 134.96105957 C-52.006455 129.23646346 -55.29799117 123.53848715 -58.68579102 117.89074707 C-71.56779559 96.37222588 -79.40422261 75.83602742 -73.17407227 50.38293457 C-66.89215637 30.52326363 -54.1633295 16.2432526 -36.16625977 6.36730957 C-24.43650253 1.01129809 -12.69114121 -0.07917199 0 0 Z " fill="#000000" transform="translate(74.736572265625,24.4920654296875)"/>
</svg>
