<?xml version="1.0" standalone="no"?>
<!DOCTYPE svg PUBLIC "-//W3C//DTD SVG 20010904//EN"
 "http://www.w3.org/TR/2001/REC-SVG-20010904/DTD/svg10.dtd">
<svg version="1.0" xmlns="http://www.w3.org/2000/svg"
 width="512.000000pt" height="512.000000pt" viewBox="0 0 512.000000 512.000000"
 preserveAspectRatio="xMidYMid meet">

<g transform="translate(0.000000,512.000000) scale(0.100000,-0.100000)"
fill="#000000" stroke="none">
<path d="M2170 5110 c-280 -49 -509 -266 -581 -550 -12 -46 -14 -267 -14
-1305 0 -1185 1 -1253 18 -1310 62 -201 210 -352 392 -400 88 -22 1062 -22
1150 0 182 48 330 199 392 400 17 57 18 125 18 1310 0 1350 2 1288 -53 1420
-58 138 -170 268 -296 344 -31 18 -96 48 -144 64 l-87 31 -375 2 c-206 1 -395
-1 -420 -6z m835 -198 c221 -83 364 -292 365 -534 l0 -68 -241 0 -241 0 -29
-29 c-46 -46 -37 -106 21 -136 23 -12 73 -15 260 -15 l230 0 0 -90 0 -90 -241
0 -241 0 -29 -29 c-31 -31 -35 -53 -19 -96 18 -48 57 -55 305 -55 l225 0 0
-90 0 -90 -244 0 -244 0 -26 -31 c-30 -35 -32 -58 -11 -98 23 -45 57 -51 301
-51 l224 0 0 -90 0 -90 -243 0 c-231 0 -244 -1 -265 -20 -29 -28 -37 -64 -21
-101 21 -53 51 -59 304 -59 l225 0 0 -175 0 -175 -810 0 -810 0 0 175 0 175
225 0 c253 0 283 6 304 59 16 37 8 73 -21 101 -21 19 -34 20 -265 20 l-243 0
0 90 0 90 224 0 c244 0 278 6 301 51 21 40 19 63 -11 98 l-26 31 -244 0 -244
0 0 90 0 90 225 0 c248 0 287 7 305 55 16 43 12 65 -19 96 l-29 29 -241 0
-241 0 0 90 0 90 230 0 c187 0 237 3 260 15 58 30 67 90 21 136 l-29 29 -241
0 -241 0 0 68 c1 271 180 499 435 552 22 5 202 7 400 6 345 -2 362 -3 420 -24z
m365 -2614 c0 -307 -19 -379 -129 -488 -40 -40 -73 -63 -114 -78 -56 -22 -69
-22 -567 -22 -585 0 -573 -2 -673 90 -113 103 -137 190 -137 498 l0 212 810 0
810 0 0 -212z"/>
<path d="M1149 3264 l-24 -26 -3 -491 c-3 -537 4 -665 44 -804 95 -332 354
-603 685 -716 124 -43 233 -57 435 -57 l184 0 0 -495 0 -495 -320 0 c-354 0
-366 -2 -390 -60 -11 -27 -11 -37 3 -66 9 -19 28 -39 43 -44 34 -13 1474 -13
1508 0 15 5 34 25 43 44 14 29 14 39 3 66 -24 58 -36 60 -390 60 l-320 0 0
495 0 495 184 0 c202 0 311 14 435 57 155 53 296 141 415 259 180 181 282 398
306 657 7 68 10 307 8 604 l-3 491 -24 26 c-30 32 -87 35 -122 7 l-24 -19 -6
-574 c-6 -621 -6 -613 -66 -772 -36 -94 -128 -230 -210 -307 -117 -110 -233
-176 -390 -221 -76 -23 -88 -23 -593 -23 -505 0 -517 0 -593 23 -328 95 -557
331 -643 662 -15 56 -18 145 -23 638 l-6 574 -24 19 c-35 28 -92 25 -122 -7z"/>
</g>
</svg>
