<?xml version="1.0" encoding="UTF-8"?>
<svg version="1.1" xmlns="http://www.w3.org/2000/svg" width="512" height="512">
<path d="M0 0 C1.73452653 -0.00461806 3.46904914 -0.01097702 5.20356369 -0.01890898 C9.93367347 -0.03550116 14.66345758 -0.02740229 19.39356804 -0.0149641 C24.50886032 -0.00587426 29.62409852 -0.01990278 34.73937988 -0.03088379 C44.74591582 -0.04863173 54.75233146 -0.04484564 64.75887203 -0.03323323 C72.89439312 -0.0241845 81.02988059 -0.02298113 89.16540527 -0.02732849 C90.32511801 -0.02794142 91.48483076 -0.02855436 92.67968631 -0.02918586 C95.0359246 -0.03046482 97.39216289 -0.03176167 99.74840117 -0.03307623 C121.82142885 -0.04447112 143.89438998 -0.03138544 165.96740675 -0.00987476 C184.89008833 0.00799521 203.81267175 0.0048908 222.73535156 -0.0135498 C244.73162577 -0.03497579 266.72784172 -0.04337258 288.72412491 -0.03110075 C291.07149505 -0.02982661 293.41886519 -0.02856912 295.76623535 -0.02732849 C297.49847512 -0.02640284 297.49847512 -0.02640284 299.26570964 -0.02545848 C307.38756256 -0.02201077 315.5093784 -0.02782144 323.63122559 -0.0372467 C333.53463016 -0.04848726 343.43790798 -0.04538341 353.3412981 -0.02412373 C358.39016505 -0.01364103 363.43882097 -0.00944396 368.48768616 -0.02272034 C373.11653181 -0.03470778 377.74497237 -0.02797775 382.37378168 -0.00681013 C384.04116116 -0.00237084 385.70857542 -0.00454957 387.37593222 -0.01431328 C402.47097536 -0.09587196 415.03887265 2.19758648 427.46582031 11.50793457 C428.56023437 12.32777832 428.56023437 12.32777832 429.67675781 13.16418457 C439.74028603 21.3383914 445.80965863 32.88479047 448.46582031 45.50793457 C448.55727024 47.18850475 448.59663818 48.87226672 448.60004139 50.55531979 C448.60449923 51.57938519 448.60895708 52.6034506 448.61355001 53.6585483 C448.61327346 55.34367811 448.61327346 55.34367811 448.61299133 57.06285095 C448.61666802 58.25766069 448.62034471 59.45247043 448.62413281 60.68348652 C448.63325202 64.00142769 448.63786769 67.31931943 448.64052212 70.63726842 C448.64442887 74.21553843 448.65400711 77.79379417 448.66273499 81.37205505 C448.68249146 90.01568456 448.69256568 98.65931523 448.70146278 107.30296168 C448.705848 111.37622615 448.71121429 115.44948932 448.71645164 119.52275276 C448.73346496 133.06897302 448.74795741 146.61519247 448.75520039 160.16142178 C448.7571102 163.67625873 448.75903054 167.19109568 448.76098633 170.70593262 C448.76147007 171.57950132 448.76195381 172.45307002 448.76245221 173.3531105 C448.77074604 187.49287432 448.79607156 201.63255337 448.82856701 215.77228021 C448.86167824 230.29878072 448.87965291 244.82523822 448.88284463 259.35177666 C448.88500623 267.50393909 448.89370321 275.65597799 448.9193058 283.80810356 C448.9410686 290.75357284 448.949036 297.69888857 448.93933902 304.64438807 C448.93481005 308.18428724 448.93659767 311.72387 448.95610046 315.26372528 C448.97712165 319.11266786 448.96669601 322.96118042 448.9535675 326.81016541 C448.97002137 328.46518048 448.97002137 328.46518048 448.98680764 330.1536302 C448.86240086 345.34091692 443.0597543 358.28779609 432.79003906 369.33996582 C422.26139369 379.1608031 409.69071183 384.62187375 395.33039188 384.64215565 C394.61970007 384.64450788 393.90900825 384.64686011 393.17678031 384.64928362 C390.78914859 384.65595434 388.40157152 384.65551598 386.01393127 384.65510559 C384.2871767 384.65840542 382.5604229 384.66213124 380.83367008 384.66624707 C376.08333325 384.67626175 371.33300906 384.67998302 366.58266318 384.68263638 C361.46109393 384.68654105 356.33953467 384.69611933 351.2179718 384.70484924 C338.84613289 384.72460983 326.47429316 384.73467969 314.10244241 384.74357703 C308.27500458 384.7479609 302.44756765 384.75332749 296.62013054 384.7585659 C277.24573359 384.77557835 257.87133721 384.79007199 238.49693394 384.79731464 C233.4693915 384.79922451 228.44184906 384.80114485 223.41430664 384.80310059 C221.53996911 384.8038262 221.53996911 384.8038262 219.62776618 384.80456647 C199.39081932 384.81286477 179.1539316 384.83819827 158.91701055 384.87068126 C138.13585542 384.90376559 117.35473034 384.92176468 96.57354873 384.92495888 C84.90749598 384.92712278 73.24152946 384.93585387 61.5755024 384.96142006 C51.63895999 384.98314584 41.70252476 384.99116822 31.7659613 384.98145328 C26.69891661 384.97691396 21.63209299 384.97877347 16.56507874 384.99821472 C11.91924151 385.01588549 7.27378597 385.01481697 2.62794446 384.99931743 C0.95423078 384.99694729 -0.7195096 385.00123386 -2.39318257 385.01314608 C-17.4966856 385.11391753 -30.11483647 382.85127947 -42.53417969 373.50793457 C-43.32566406 372.9227002 -44.11714844 372.33746582 -44.93261719 371.73449707 C-55.68118041 363.04026675 -62.27373331 350.07654345 -63.90543461 336.39503098 C-64.04358737 333.2139721 -64.06800722 330.05465945 -64.04211426 326.87072754 C-64.04835422 325.66822798 -64.05459418 324.46572842 -64.06102324 323.22678947 C-64.07410528 319.92899052 -64.06955051 316.63179287 -64.05707836 313.33401012 C-64.04795839 309.76201059 -64.06203171 306.19008703 -64.07299805 302.61810303 C-64.09071439 295.63639299 -64.08697419 288.65485569 -64.07534748 281.6731391 C-64.06628617 275.99515213 -64.06510078 270.31721332 -64.06944275 264.63922119 C-64.07005568 263.82877975 -64.07066861 263.01833832 -64.07130012 262.18333805 C-64.07257912 260.53655448 -64.07387597 258.88977093 -64.07519048 257.24298739 C-64.08657611 241.82836335 -64.07351433 226.41383472 -64.05198902 210.99922633 C-64.03411986 197.79439904 -64.03722454 184.58971245 -64.05566406 171.3848877 C-64.07710652 156.02258809 -64.08547766 140.66037194 -64.07321501 125.29805946 C-64.07194091 123.65758897 -64.07068343 122.01711847 -64.06944275 120.37664795 C-64.06882565 119.56966363 -64.06820854 118.76267931 -64.06757274 117.93124092 C-64.06412995 112.26503284 -64.06992499 106.59887804 -64.07936096 100.93267822 C-64.09061993 94.02033888 -64.08745948 87.10818105 -64.06623799 80.19586229 C-64.05577963 76.67414654 -64.05151555 73.1527326 -64.06483459 69.63101959 C-64.0758247 65.80209606 -64.06198288 61.97401218 -64.04211426 58.1451416 C-64.05103714 57.0479373 -64.05996003 55.95073299 -64.06915331 54.82028008 C-63.91863899 39.78492373 -58.19036959 26.69085492 -47.97949219 15.74230957 C-33.86734653 2.84750555 -18.45099167 -0.1080453 0 0 Z M-26.53417969 38.50793457 C-30.60911731 44.2105385 -33.65229295 49.26823508 -32.53417969 56.50793457 C-30.19317403 59.05373599 -27.35501876 60.71770094 -24.42089844 62.51574707 C-23.56184402 63.07023529 -22.70278961 63.62472351 -21.81770325 64.1960144 C-18.96598431 66.03062211 -16.09401862 67.83081694 -13.22167969 69.63293457 C-11.21200141 70.91973886 -9.20421343 72.20949969 -7.19824219 73.5020752 C-4.08589856 75.50749664 -0.97268857 77.51134137 2.14614868 79.50665283 C11.64761782 85.58951022 21.00303854 91.87424347 30.33187866 98.21759033 C46.52996142 109.22775988 62.83909561 120.0607998 79.21096802 130.81036377 C92.25267258 139.37630039 105.22999964 148.0310989 118.15402222 156.77359009 C123.4738679 160.37139046 128.79846579 163.96215546 134.12290955 167.55314636 C138.07172086 170.21657164 142.0191266 172.88198514 145.96191406 175.55432129 C149.32563815 177.83265551 152.69837182 180.09694312 156.07913208 182.34991455 C157.26644333 183.14431566 158.45061152 183.94344135 159.631073 184.74798584 C173.36151782 194.09831949 186.74760619 198.12763692 203.28613281 195.37121582 C211.46444797 193.1508133 218.37607728 189.61464516 225.30175781 184.79309082 C226.12173248 184.23435776 226.94170715 183.67562469 227.78652954 183.09996033 C229.5531774 181.89496932 231.3169667 180.6857785 233.078125 179.47277832 C237.86832602 176.17432954 242.68034235 172.90791557 247.48925781 169.63684082 C248.48213806 168.96025421 249.47501831 168.2836676 250.49798584 167.58657837 C260.74598276 160.6129303 271.0998696 153.80441751 281.46582031 147.00793457 C296.03658171 137.44404383 310.53301275 127.77871986 324.96582031 118.00793457 C338.79684913 108.64518457 352.67843114 99.36567143 366.63171387 90.18597412 C369.42735329 88.34575534 372.22077218 86.50221048 375.01367188 84.65783691 C382.36669408 79.80626958 389.71926799 74.95896643 397.1619873 70.24571228 C399.76557036 68.59509084 402.3584852 66.92818618 404.95019531 65.25900269 C406.65758782 64.17007369 408.38179756 63.10765321 410.10644531 62.04626465 C412.77057067 60.32633411 415.19515607 58.72009685 417.46582031 56.50793457 C418.69722029 50.61701608 416.62432116 46.38457758 413.46582031 41.50793457 C409.43692827 36.84290168 404.68138894 32.61073801 398.46582031 31.50793457 C396.16591553 31.41411813 393.86343509 31.37881009 391.5616188 31.37650681 C390.51487596 31.37342785 390.51487596 31.37342785 389.44698679 31.3702867 C387.09714758 31.36461013 384.74736685 31.36607476 382.39752197 31.36749268 C380.70035286 31.36490942 379.00318435 31.36189637 377.30601668 31.35848927 C372.63304753 31.35041142 367.96009374 31.34862927 363.28711843 31.34789181 C358.25085633 31.34604263 353.21460222 31.33849599 348.17834473 31.33175659 C337.16186794 31.31816733 326.14539479 31.31214767 315.12891102 31.30774593 C308.25221746 31.30498461 301.37552531 31.30074746 294.4988327 31.29624176 C275.46502394 31.2840485 256.4312163 31.27374918 237.39740372 31.27036667 C236.17890086 31.2701471 234.96039801 31.26992754 233.70497082 31.26970132 C232.48352833 31.26948304 231.26208583 31.26926476 230.00362992 31.26903987 C227.52846161 31.2685964 225.05329331 31.26814984 222.578125 31.2677002 C220.73646581 31.26736805 220.73646581 31.26736805 218.85760137 31.2670292 C198.95927485 31.26308042 179.06098493 31.24562424 159.16267255 31.22234067 C138.74092172 31.19863718 118.31918927 31.18616528 97.89742446 31.18499875 C86.42830268 31.18408144 74.95922859 31.17831512 63.49011993 31.16017914 C53.7246706 31.14479171 43.95928371 31.13964968 34.19382456 31.14791724 C29.21060292 31.1518285 24.22750707 31.15087088 19.24430084 31.13685989 C14.68205885 31.1241497 10.12003753 31.12529313 5.55779597 31.13745061 C3.90771472 31.1394126 2.257618 31.13630603 0.60755852 31.12760624 C-14.21377832 30.95263019 -14.21377832 30.95263019 -26.53417969 38.50793457 Z M-33.53417969 93.50793457 C-33.57983932 123.27531921 -33.61521682 153.04270266 -33.63631035 182.81011479 C-33.63881165 186.32722665 -33.64140031 189.84433844 -33.64404297 193.3614502 C-33.64456759 194.06162156 -33.64509221 194.76179293 -33.64563273 195.48318161 C-33.65432703 206.80902439 -33.67009162 218.13484679 -33.68848528 229.46067749 C-33.70721149 241.08855254 -33.71815253 252.71641574 -33.72235668 264.34430516 C-33.72496254 270.87275447 -33.73108153 277.40115762 -33.7456398 283.92959213 C-33.75923758 290.07725143 -33.76339785 296.22484564 -33.76039505 302.37251854 C-33.76094423 304.62590196 -33.76490852 306.87928761 -33.77259064 309.132658 C-33.78258618 312.21647808 -33.78013172 315.30005454 -33.77468872 318.38388062 C-33.7805144 319.26912505 -33.78634009 320.15436949 -33.79234231 321.06643951 C-33.74890888 330.21219626 -32.84098364 339.42794071 -26.53417969 346.50793457 C-19.94235522 351.91087641 -15.11082187 353.63087608 -6.62997818 353.63936234 C-5.58323533 353.64244129 -5.58323533 353.64244129 -4.51534617 353.64558244 C-2.16550695 353.65125901 0.18427377 353.64979438 2.53411865 353.64837646 C4.23128777 353.65095972 5.92845628 353.65397277 7.62562394 353.65737987 C12.29859309 353.66545772 16.97154689 353.66723987 21.64452219 353.66797733 C26.6807843 353.66982652 31.71703841 353.67737315 36.7532959 353.68411255 C47.76977268 353.69770181 58.78624583 353.70372147 69.80272961 353.70812321 C76.67942317 353.71088453 83.55611532 353.71512168 90.43280792 353.71962738 C109.46661669 353.73182065 128.50042432 353.74211996 147.53423691 353.74550247 C148.75273976 353.74572204 149.97124262 353.7459416 151.2266698 353.74616782 C152.4481123 353.7463861 153.6695548 353.74660438 154.9280107 353.74682927 C157.40317901 353.74727274 159.87834732 353.7477193 162.35351562 353.74816895 C164.19517482 353.74850109 164.19517482 353.74850109 166.07403925 353.74883994 C185.97236577 353.75278872 205.87065569 353.7702449 225.76896808 353.79352847 C246.1907189 353.81723196 266.61245136 353.82970386 287.03421617 353.83087039 C298.50333795 353.8317877 309.97241203 353.83755402 321.44152069 353.85569 C331.20697002 353.87107743 340.97235692 353.87621946 350.73781607 353.8679519 C355.7210377 353.86404064 360.70413356 353.86499826 365.68733978 353.87900925 C370.24958177 353.89171944 374.81160309 353.89057601 379.37384465 353.87841853 C381.0239259 353.87645654 382.67402263 353.87956311 384.32408211 353.8882629 C397.33622866 354.10998945 397.33622866 354.10998945 408.89160156 348.71105957 C417.60426375 339.69174053 418.62593383 330.9778088 418.58607483 318.74464417 C418.58692925 317.77902839 418.58778368 316.81341261 418.588664 315.81853575 C418.59030716 312.59266851 418.58481648 309.36685363 418.5793457 306.14099121 C418.57906355 303.82471722 418.57922211 301.50844313 418.57978821 299.19216919 C418.5800751 292.90971838 418.57419576 286.62728666 418.56721425 280.34484029 C418.5609628 273.77717132 418.56037549 267.20950192 418.55918884 260.64183044 C418.5566005 249.62022572 418.55018781 238.59862768 418.54125977 227.57702637 C418.53207508 216.22676631 418.52499941 204.87650815 418.52075195 193.52624512 C418.52048923 192.82614022 418.52022651 192.12603532 418.51995582 191.40471513 C418.51865075 187.89235284 418.51738705 184.37999053 418.51614392 180.86762822 C418.50578403 151.74772578 418.48810228 122.62783027 418.46582031 93.50793457 C415.27631274 94.75262703 412.4792035 96.00507223 409.64916992 97.93688965 C408.92890121 98.42490555 408.20863251 98.91292145 407.46653748 99.41572571 C406.69157425 99.94759995 405.91661102 100.47947418 405.11816406 101.02746582 C404.29111465 101.58902878 403.46406525 102.15059174 402.61195374 102.72917175 C400.81690657 103.94827285 399.02321088 105.16936574 397.23071289 106.39221191 C392.36742595 109.70887198 387.49300302 113.00906732 382.61816406 116.30871582 C381.60982513 116.9914859 380.60148621 117.67425598 379.56259155 118.37771606 C369.25646631 125.34525616 358.86698032 132.18344559 348.46582031 139.00793457 C333.89589506 148.57314216 319.39901369 158.23766372 304.96582031 168.00793457 C289.90042603 178.20327663 274.77694064 188.30572073 259.59082031 198.32043457 C258.66615967 198.93112793 257.74149902 199.54182129 256.78881836 200.17102051 C240.3002838 211.05596613 240.3002838 211.05596613 232.14941406 216.15246582 C231.20638428 216.74261475 230.26335449 217.33276367 229.29174805 217.9407959 C211.49580844 227.80966297 188.94284005 228.46864437 169.53613281 223.57043457 C153.62450411 218.80687005 140.05822705 208.34970369 126.47631836 199.09558105 C121.74653183 195.8740533 117.00695851 192.66700583 112.26660156 189.46105957 C111.28917999 188.79993164 110.31175842 188.13880371 109.30471802 187.4576416 C99.08193361 180.55442945 88.77838381 173.77596129 78.46582031 167.00793457 C63.89617795 157.44228028 49.39918189 147.77797627 34.96582031 138.00793457 C20.67174492 128.33584403 6.33601049 118.72992256 -8.06567383 109.21862793 C-10.03307159 107.91916487 -11.99971546 106.61855963 -13.96557617 105.31677246 C-16.6839787 103.51747662 -19.4054074 101.72286377 -22.12792969 99.92980957 C-22.9382666 99.39277405 -23.74860352 98.85573853 -24.58349609 98.3024292 C-25.32712402 97.81433777 -26.07075195 97.32624634 -26.83691406 96.82336426 C-27.48221069 96.39787292 -28.12750732 95.97238159 -28.7923584 95.53399658 C-30.66865407 94.34697461 -30.66865407 94.34697461 -33.53417969 93.50793457 Z " fill="#000000" transform="translate(63.5341796875,63.4920654296875)"/>
</svg>
