<?xml version="1.0" encoding="UTF-8"?>
<svg version="1.1" xmlns="http://www.w3.org/2000/svg" width="512" height="512">
<path d="M0 0 C3.38538502 2.94625514 6.7113633 5.94626592 10 9 C10.88945313 9.80824219 10.88945313 9.80824219 11.796875 10.6328125 C37.73827914 35.21538118 55.58179395 74.21752261 57.12608337 109.91447449 C57.21070059 113.35959941 57.26863542 116.80416702 57.31640625 120.25 C57.3475779 122.13078247 57.3475779 122.13078247 57.37937927 124.04956055 C57.43342848 127.35711946 57.4837541 130.66470664 57.53222656 133.97235107 C57.58277418 137.35792039 57.63828528 140.74340808 57.69335938 144.12890625 C57.80011289 150.75253884 57.90195208 157.37623313 58 164 C58.80099121 164.32323242 59.60198242 164.64646484 60.42724609 164.97949219 C61.49023926 165.41422852 62.55323242 165.84896484 63.6484375 166.296875 C64.69692871 166.72323242 65.74541992 167.14958984 66.82568359 167.58886719 C84.02747134 175.2358702 96.73215595 189.09399649 104.0078125 206.3046875 C108.27981394 217.90973079 109.16283919 228.66312135 109.203125 240.9375 C109.20595238 241.60740967 109.20877975 242.27731934 109.21169281 242.9675293 C109.22662927 246.51855859 109.23589154 250.06954791 109.24023438 253.62060547 C109.24568613 257.24329543 109.26965954 260.86560331 109.29820633 264.48817444 C109.31706619 267.31277442 109.32205068 270.13728702 109.32357025 272.96194458 C109.3279751 274.9329264 109.34650864 276.903861 109.36553955 278.87475586 C109.3130594 300.51630011 102.49699376 319.62290123 87.578125 335.58203125 C71.87414675 350.31045934 53.04203803 356.12189388 31.93359375 356.203125 C30.20521019 356.21167511 30.20521019 356.21167511 28.44190979 356.22039795 C26.01377268 356.22981471 23.58562299 356.23636866 21.1574707 356.24023438 C17.44655245 356.24997624 13.73617997 356.28104639 10.02539062 356.3125 C7.66146161 356.31902734 5.29752865 356.32427887 2.93359375 356.328125 C1.82721054 356.3404718 0.72082733 356.3528186 -0.41908264 356.36553955 C-10.38189734 356.33673621 -10.38189734 356.33673621 -15 353 C-19.42772943 348.51572011 -20.62562757 346.09970327 -20.64164734 339.60597229 C-20.65015286 338.88299593 -20.65865838 338.16001958 -20.66742164 337.41513485 C-20.68962628 335.00354889 -20.67627549 332.59351557 -20.6628418 330.18188477 C-20.67125809 328.44852599 -20.68178458 326.71517636 -20.69425964 324.98184204 C-20.7213033 320.28130153 -20.71660811 315.5812919 -20.70455909 310.88070798 C-20.69742515 306.95421286 -20.70592887 303.02781576 -20.71446449 299.10132831 C-20.73441504 289.83723775 -20.72884952 280.57340525 -20.70678711 271.30932617 C-20.6844245 261.7569796 -20.70202106 252.20530888 -20.73983639 242.65302616 C-20.77108152 234.44644194 -20.77898286 226.24006681 -20.76788265 218.03343052 C-20.76139838 213.13427435 -20.76338438 208.23550813 -20.78720665 203.33639717 C-20.80847012 198.72894354 -20.80046639 194.12244269 -20.77011299 189.51504898 C-20.76378939 187.82641834 -20.76763734 186.1377136 -20.78252411 184.44913673 C-20.89870764 170.10556259 -20.89870764 170.10556259 -17.07746887 165.50328064 C-14 163 -14 163 -12 162 C-11.89735718 154.76339033 -11.82802153 147.52697287 -11.78027344 140.28979492 C-11.76033777 137.83529649 -11.73317928 135.38084441 -11.69824219 132.92651367 C-11.26435527 101.62922975 -18.16722391 76.62052644 -40.125 53.4375 C-57.92876522 36.07454328 -81.91314973 27.7393104 -106.5222168 27.7512207 C-128.67351614 28.04578022 -149.27269084 36.71699834 -166 51 C-167.21042969 51.90685547 -167.21042969 51.90685547 -168.4453125 52.83203125 C-179.48739107 62.20260251 -187.46641901 76.13286679 -192.3125 89.5625 C-192.55524658 90.23450439 -192.79799316 90.90650879 -193.0480957 91.59887695 C-196.43029865 101.54688455 -197.30667113 111.43310062 -197.4140625 121.88671875 C-197.43342865 123.06974075 -197.4527948 124.25276276 -197.4727478 125.47163391 C-197.53201211 129.21018508 -197.57871484 132.94876793 -197.625 136.6875 C-197.66322875 139.23894492 -197.70228324 141.79037761 -197.7421875 144.34179688 C-197.83766932 150.56108848 -197.92286863 156.78045517 -198 163 C-197.13375 163.3403125 -197.13375 163.3403125 -196.25 163.6875 C-193.28951264 165.41445096 -191.88982076 167.13067156 -190 170 C-189.49104881 173.35996056 -189.49104881 173.35996056 -189.47860718 177.27377319 C-189.46713054 178.35695609 -189.46713054 178.35695609 -189.45542204 179.46202147 C-189.4348198 181.87650898 -189.44273403 184.2900401 -189.45068359 186.70458984 C-189.44198725 188.43779885 -189.43162024 190.17100017 -189.41970825 191.90419006 C-189.39292633 196.60884605 -189.39177107 201.31318072 -189.39683485 206.01789808 C-189.39897437 209.94681943 -189.38920723 213.87567577 -189.37962401 217.80458319 C-189.35743259 227.0748497 -189.35655917 236.34495415 -189.36865234 245.61523438 C-189.38073145 255.17492774 -189.35611207 264.73403233 -189.31351221 274.29362524 C-189.27826992 282.50442136 -189.2662791 290.71503018 -189.27278769 298.92589915 C-189.27641246 303.82844144 -189.27115134 308.73056383 -189.24335861 313.63303757 C-189.21819378 318.24455453 -189.22209555 322.85515464 -189.24818039 327.46665764 C-189.25290968 329.15690992 -189.24745008 330.84722681 -189.23093414 332.53740501 C-189.10083154 346.8890168 -189.10083154 346.8890168 -192.73403931 351.43521118 C-196.87237874 355.13644499 -200.71199302 356.2461349 -206.21069336 356.2746582 C-207.22622787 356.28419022 -208.24176239 356.29372223 -209.28807068 356.30354309 C-210.92244835 356.30217598 -210.92244835 356.30217598 -212.58984375 356.30078125 C-214.29401207 356.30720894 -214.29401207 356.30720894 -216.03260803 356.31376648 C-218.43913101 356.31950682 -220.84567135 356.32001223 -223.25219727 356.31567383 C-226.8930523 356.31253828 -230.53307495 356.33589249 -234.17382812 356.36132812 C-259.02790579 356.42991409 -279.81758125 352.11945505 -298.58203125 334.578125 C-314.1762164 317.95104551 -319.13025115 298.26588353 -319.203125 276.0625 C-319.20595238 275.39259033 -319.20877975 274.72268066 -319.21169281 274.0324707 C-319.22662927 270.48144141 -319.23589154 266.93045209 -319.24023438 263.37939453 C-319.24568613 259.75670457 -319.26965954 256.13439669 -319.29820633 252.51182556 C-319.31706619 249.68722558 -319.32205068 246.86271298 -319.32357025 244.03805542 C-319.3279751 242.0670736 -319.34650864 240.096139 -319.36553955 238.12524414 C-319.31427504 216.98499689 -312.85539352 197.85861053 -298.28125 182.19140625 C-289.47283862 173.72990149 -279.56918121 167.85639374 -268 164 C-267.98018066 162.81784912 -267.96036133 161.63569824 -267.93994141 160.41772461 C-266.99158862 105.77107919 -262.91038331 55.86605307 -224 14 C-223.46922852 13.42008301 -222.93845703 12.84016602 -222.39160156 12.24267578 C-165.13550074 -49.78761875 -63.77987517 -54.74351724 0 0 Z M-213.5625 27.75 C-242.47902109 60.7829327 -250.27839195 100.32671475 -250.0625 143 C-250.05746748 144.7578112 -250.05290771 146.51562383 -250.04882812 148.2734375 C-250.03884165 152.51569041 -250.01924413 156.75773942 -250 161 C-238.45 161 -226.9 161 -215 161 C-214.96261719 157.2875 -214.92523438 153.575 -214.88671875 149.75 C-214.84033617 146.10248353 -214.78916363 142.45506294 -214.73754883 138.80761719 C-214.70456027 136.29791223 -214.67644983 133.78813773 -214.65356445 131.27832031 C-214.32764585 96.46743981 -206.66362453 67.50683926 -182.25 41.8125 C-160.66639567 21.0693787 -131.64058108 10.36444475 -101.87304688 10.65087891 C-71.96510507 11.45374002 -43.95041632 23.79283461 -23.1796875 45.4765625 C-11.52363516 58.97084532 -2.42251962 74.65522889 2 92 C2.25676514 92.93271729 2.51353027 93.86543457 2.77807617 94.82641602 C5.94389242 108.00799932 5.56497415 121.45348622 5.6875 134.9375 C5.72073159 137.47072015 5.75522648 140.00392406 5.79101562 142.53710938 C5.8775826 148.69141755 5.93821761 154.84519571 6 161 C17.22 161 28.44 161 40 161 C40.0694773 153.92360829 40.12902631 146.84843576 40.16479492 139.77197266 C40.17973126 137.37284296 40.2000877 134.97373983 40.22631836 132.57470703 C40.58713283 98.6864464 34.02658212 66.58142755 13 39 C12.36320312 38.1440625 11.72640625 37.288125 11.0703125 36.40625 C0.66079017 23.05063644 -11.61303776 10.97906911 -26 2 C-26.6074707 1.6179541 -27.21494141 1.2359082 -27.84082031 0.84228516 C-88.5673764 -36.7226404 -165.36738645 -23.95934058 -213.5625 27.75 Z M-228 178 C-228 231.13 -228 284.26 -228 339 C-221.07 339 -214.14 339 -207 339 C-207 285.87 -207 232.74 -207 178 C-213.93 178 -220.86 178 -228 178 Z M-3 178 C-3 231.13 -3 284.26 -3 339 C5.25 339 13.5 339 22 339 C22 285.87 22 232.74 22 178 C13.75 178 5.5 178 -3 178 Z M-286.37109375 195.2109375 C-298.96650701 208.57367906 -302.32537005 224.7105808 -302.265625 242.53125 C-302.26753845 243.80295044 -302.2694519 245.07465088 -302.27142334 246.3848877 C-302.27277815 249.0609326 -302.27015397 251.73660635 -302.26074219 254.41259766 C-302.24934896 257.81479873 -302.25592121 261.21668406 -302.26788712 264.6188736 C-302.27691833 267.90217647 -302.2705652 271.18544298 -302.265625 274.46875 C-302.26967346 275.67631958 -302.27372192 276.88388916 -302.27789307 278.12805176 C-302.18345544 295.32776863 -297.21646583 310.56185927 -285.1875 323.1875 C-274.04229998 333.76599494 -262.25854581 337.61285947 -247 339 C-247 285.87 -247 232.74 -247 178 C-262.53262728 178 -275.52208154 184.47587791 -286.37109375 195.2109375 Z M39 179 C39 231.47 39 283.94 39 338 C54.10566953 338 65.7787089 331.68006592 76.67578125 321.484375 C89.08174524 308.22354627 92.3030715 292.23385199 92.3359375 274.6796875 C92.3425943 273.4222171 92.3492511 272.1647467 92.35610962 270.86917114 C92.36619241 268.21829984 92.37179868 265.56783925 92.37060547 262.91699219 C92.37044336 260.23279752 92.38427206 257.54928848 92.41162109 254.86523438 C92.62940745 231.84210526 92.10436568 211.87120992 75.41015625 194.28515625 C65.13084272 184.53896757 53.12560361 179 39 179 Z " fill="#000000" transform="translate(361,97)"/>
</svg>
