<?xml version="1.0" encoding="UTF-8"?>
<svg version="1.1" xmlns="http://www.w3.org/2000/svg" width="512" height="512">
<path d="M0 0 C3.38538502 2.94625514 6.7113633 5.94626592 10 9 C10.88945313 9.80824219 10.88945313 9.80824219 11.796875 10.6328125 C37.73827914 35.21538118 55.58179395 74.21752261 57.12608337 109.91447449 C57.21070059 113.35959941 57.26863542 116.80416702 57.31640625 120.25 C57.3475779 122.13078247 57.3475779 122.13078247 57.37937927 124.04956055 C57.43342848 127.35711946 57.4837541 130.66470664 57.53222656 133.97235107 C57.58277418 137.35792039 57.63828528 140.74340808 57.69335938 144.12890625 C57.80011289 150.75253884 57.90195208 157.37623313 58 164 C58.80099121 164.32323242 59.60198242 164.64646484 60.42724609 164.97949219 C61.49023926 165.41422852 62.55323242 165.84896484 63.6484375 166.296875 C64.69692871 166.72323242 65.74541992 167.14958984 66.82568359 167.58886719 C84.02747134 175.2358702 96.73215595 189.09399649 104.0078125 206.3046875 C108.27981394 217.90973079 109.16283919 228.66312135 109.203125 240.9375 C109.20595238 241.60740967 109.20877975 242.27731934 109.21169281 242.9675293 C109.22662927 246.51855859 109.23589154 250.06954791 109.24023438 253.62060547 C109.24568613 257.24329543 109.26965954 260.86560331 109.29820633 264.48817444 C109.31706619 267.31277442 109.32205068 270.13728702 109.32357025 272.96194458 C109.3279751 274.9329264 109.34650864 276.903861 109.36553955 278.87475586 C109.3130594 300.51630011 102.49699376 319.62290123 87.578125 335.58203125 C71.87414675 350.31045934 53.04203803 356.12189388 31.93359375 356.203125 C30.20521019 356.21167511 30.20521019 356.21167511 28.44190979 356.22039795 C26.01377268 356.22981471 23.58562299 356.23636866 21.1574707 356.24023438 C17.44655245 356.24997624 13.73617997 356.28104639 10.02539062 356.3125 C7.66146161 356.31902734 5.29752865 356.32427887 2.93359375 356.328125 C1.82721054 356.3404718 0.72082733 356.3528186 -0.41908264 356.36553955 C-10.38189734 356.33673621 -10.38189734 356.33673621 -15 353 C-19.42772943 348.51572011 -20.62562757 346.09970327 -20.64164734 339.60597229 C-20.65015286 338.88299593 -20.65865838 338.16001958 -20.66742164 337.41513485 C-20.68962628 335.00354889 -20.67627549 332.59351557 -20.6628418 330.18188477 C-20.67125809 328.44852599 -20.68178458 326.71517636 -20.69425964 324.98184204 C-20.7213033 320.28130153 -20.71660811 315.5812919 -20.70455909 310.88070798 C-20.69742515 306.95421286 -20.70592887 303.02781576 -20.71446449 299.10132831 C-20.73441504 289.83723775 -20.72884952 280.57340525 -20.70678711 271.30932617 C-20.6844245 261.7569796 -20.70202106 252.20530888 -20.73983639 242.65302616 C-20.77108152 234.44644194 -20.77898286 226.24006681 -20.76788265 218.03343052 C-20.76139838 213.13427435 -20.76338438 208.23550813 -20.78720665 203.33639717 C-20.80847012 198.72894354 -20.80046639 194.12244269 -20.77011299 189.51504898 C-20.76378939 187.82641834 -20.76763734 186.1377136 -20.78252411 184.44913673 C-20.89870764 170.10556259 -20.89870764 170.10556259 -17.07746887 165.50328064 C-14 163 -14 163 -12 162 C-11.89735718 154.76339033 -11.82802153 147.52697287 -11.78027344 140.28979492 C-11.76033777 137.83529649 -11.73317928 135.38084441 -11.69824219 132.92651367 C-11.26435527 101.62922975 -18.16722391 76.62052644 -40.125 53.4375 C-57.92876522 36.07454328 -81.91314973 27.7393104 -106.5222168 27.7512207 C-128.67351614 28.04578022 -149.27269084 36.71699834 -166 51 C-167.21042969 51.90685547 -167.21042969 51.90685547 -168.4453125 52.83203125 C-179.48739107 62.20260251 -187.46641901 76.13286679 -192.3125 89.5625 C-192.55524658 90.23450439 -192.79799316 90.90650879 -193.0480957 91.59887695 C-196.43029865 101.54688455 -197.30667113 111.43310062 -197.4140625 121.88671875 C-197.43342865 123.06974075 -197.4527948 124.25276276 -197.4727478 125.47163391 C-197.53201211 129.21018508 -197.57871484 132.94876793 -197.625 136.6875 C-197.66322875 139.23894492 -197.70228324 141.79037761 -197.7421875 144.34179688 C-197.83766932 150.56108848 -197.92286863 156.78045517 -198 163 C-197.13375 163.3403125 -197.13375 163.3403125 -196.25 163.6875 C-193.28951264 165.41445096 -191.88982076 167.13067156 -190 170 C-189.49104881 173.35996056 -189.49104881 173.35996056 -189.47860718 177.27377319 C-189.46713054 178.35695609 -189.46713054 178.35695609 -189.45542204 179.46202147 C-189.4348198 181.87650898 -189.44273403 184.2900401 -189.45068359 186.70458984 C-189.44198725 188.43779885 -189.43162024 190.17100017 -189.41970825 191.90419006 C-189.39292633 196.60884605 -189.39177107 201.31318072 -189.39683485 206.01789808 C-189.39897437 209.94681943 -189.38920723 213.87567577 -189.37962401 217.80458319 C-189.35743259 227.0748497 -189.35655917 236.34495415 -189.36865234 245.61523438 C-189.38073145 255.17492774 -189.35611207 264.73403233 -189.31351221 274.29362524 C-189.27826992 282.50442136 -189.2662791 290.71503018 -189.27278769 298.92589915 C-189.27641246 303.82844144 -189.27115134 308.73056383 -189.24335861 313.63303757 C-189.21819378 318.24455453 -189.22209555 322.85515464 -189.24818039 327.46665764 C-189.25290968 329.15690992 -189.24745008 330.84722681 -189.23093414 332.53740501 C-189.10083154 346.8890168 -189.10083154 346.8890168 -192.73403931 351.43521118 C-196.87237874 355.13644499 -200.71199302 356.2461349 -206.21069336 356.2746582 C-207.22622787 356.28419022 -208.24176239 356.29372223 -209.28807068 356.30354309 C-210.92244835 356.30217598 -210.92244835 356.30217598 -212.58984375 356.30078125 C-214.29401207 356.30720894 -214.29401207 356.30720894 -216.03260803 356.31376648 C-218.43913101 356.31950682 -220.84567135 356.32001223 -223.25219727 356.31567383 C-226.8930523 356.31253828 -230.53307495 356.33589249 -234.17382812 356.36132812 C-259.02790579 356.42991409 -279.81758125 352.11945505 -298.58203125 334.578125 C-314.1762164 317.95104551 -319.13025115 298.26588353 -319.203125 276.0625 C-319.20595238 275.39259033 -319.20877975 274.72268066 -319.21169281 274.0324707 C-319.22662927 270.48144141 -319.23589154 266.93045209 -319.24023438 263.37939453 C-319.24568613 259.75670457 -319.26965954 256.13439669 -319.29820633 252.51182556 C-319.31706619 249.68722558 -319.32205068 246.86271298 -319.32357025 244.03805542 C-319.3279751 242.0670736 -319.34650864 240.096139 -319.36553955 238.12524414 C-319.31427504 216.98499689 -312.85539352 197.85861053 -298.28125 182.19140625 C-289.47283862 173.72990149 -279.56918121 167.85639374 -268 164 C-267.98018066 162.81784912 -267.96036133 161.63569824 -267.93994141 160.41772461 C-266.99158862 105.77107919 -262.91038331 55.86605307 -224 14 C-223.46922852 13.42008301 -222.93845703 12.84016602 -222.39160156 12.24267578 C-165.13550074 -49.78761875 -63.77987517 -54.74351724 0 0 Z M-213.5625 27.75 C-242.47902109 60.7829327 -250.27839195 100.32671475 -250.0625 143 C-250.05746748 144.7578112 -250.05290771 146.51562383 -250.04882812 148.2734375 C-250.03884165 152.51569041 -250.01924413 156.75773942 -250 161 C-238.45 161 -226.9 161 -215 161 C-214.96261719 157.2875 -214.92523438 153.575 -214.88671875 149.75 C-214.84033617 146.10248353 -214.78916363 142.45506294 -214.73754883 138.80761719 C-214.70456027 136.29791223 -214.67644983 133.78813773 -214.65356445 131.27832031 C-214.32764585 96.46743981 -206.66362453 67.50683926 -182.25 41.8125 C-160.66639567 21.0693787 -131.64058108 10.36444475 -101.87304688 10.65087891 C-71.96510507 11.45374002 -43.95041632 23.79283461 -23.1796875 45.4765625 C-11.52363516 58.97084532 -2.42251962 74.65522889 2 92 C2.25676514 92.93271729 2.51353027 93.86543457 2.77807617 94.82641602 C5.94389242 108.00799932 5.56497415 121.45348622 5.6875 134.9375 C5.72073159 137.47072015 5.75522648 140.00392406 5.79101562 142.53710938 C5.8775826 148.69141755 5.93821761 154.84519571 6 161 C17.22 161 28.44 161 40 161 C40.0694773 153.92360829 40.12902631 146.84843576 40.16479492 139.77197266 C40.17973126 137.37284296 40.2000877 134.97373983 40.22631836 132.57470703 C40.50656467 106.25353382 37.23150817 82.54079946 25 59 C24.49726562 58.01966797 24.49726562 58.01966797 23.984375 57.01953125 C12.50069472 34.8663122 -4.71246177 15.21295476 -26 2 C-26.60602051 1.6194043 -27.21204102 1.23880859 -27.83642578 0.84667969 C-88.56229321 -36.72381556 -165.36593893 -23.96089365 -213.5625 27.75 Z M-284.390625 193.3828125 C-298.09700352 207.13022808 -302.30044483 223.36321384 -302.3359375 242.3203125 C-302.3425943 243.5777829 -302.3492511 244.8352533 -302.35610962 246.13082886 C-302.36619241 248.78170016 -302.37179868 251.43216075 -302.37060547 254.08300781 C-302.37044336 256.76720248 -302.38427206 259.45071152 -302.41162109 262.13476562 C-302.62539149 284.73335 -302.20221001 304.69622718 -285.9375 322.1953125 C-274.60107647 332.75464248 -260.53215325 339 -245 339 C-245 285.87 -245 232.74 -245 178 C-260.05876691 178 -273.03016136 183.63120064 -284.390625 193.3828125 Z M-228 178 C-228 231.13 -228 284.26 -228 339 C-221.07 339 -214.14 339 -207 339 C-207 285.87 -207 232.74 -207 178 C-213.93 178 -220.86 178 -228 178 Z M-3 178 C-3 231.13 -3 284.26 -3 339 C5.25 339 13.5 339 22 339 C22 285.87 22 232.74 22 178 C13.75 178 5.5 178 -3 178 Z M39 179 C39 231.47 39 283.94 39 338 C54.10566953 338 65.7787089 331.68006592 76.67578125 321.484375 C89.08174524 308.22354627 92.3030715 292.23385199 92.3359375 274.6796875 C92.3425943 273.4222171 92.3492511 272.1647467 92.35610962 270.86917114 C92.36619241 268.21829984 92.37179868 265.56783925 92.37060547 262.91699219 C92.37044336 260.23279752 92.38427206 257.54928848 92.41162109 254.86523438 C92.62940745 231.84210526 92.10436568 211.87120992 75.41015625 194.28515625 C65.13084272 184.53896757 53.12560361 179 39 179 Z " fill="#000000" transform="translate(361,97)"/>
<path d="M0 0 C10.14780595 5.50077861 18.10443353 14.98783132 26.125 23.125 C31.72914857 28.8100054 37.29470741 34.44828188 43.43701172 39.55810547 C46.11861068 42.03194543 46.96889237 43.76002684 47.4375 47.375 C47 51 47 51 44.9375 53.9375 C42 56 42 56 38.6875 56.75 C33.30318885 55.65488587 30.79714025 52.84100161 27 49 C25.96141876 47.96175794 24.92231879 46.92403463 23.8828125 45.88671875 C22.18280452 44.18695855 20.48521849 42.48506405 18.79418945 40.77636719 C15.28493025 37.23894379 11.71036847 33.85155982 7.87890625 30.66015625 C6.14339185 29.12669758 4.51575478 27.53717277 2.88256836 25.89624023 C2.34264755 25.35434555 1.80272675 24.81245087 1.2464447 24.25413513 C0.62945457 23.63333824 0.62945457 23.63333824 0 23 C-0.00879936 24.78286407 -0.00879936 24.78286407 -0.01777649 26.60174561 C-0.07516331 37.84127292 -0.14800766 49.08060971 -0.23571491 60.31994247 C-0.28030912 66.09723242 -0.31958917 71.87445363 -0.34643555 77.65185547 C-0.37257798 83.23465372 -0.4130571 88.81718586 -0.46318626 94.39981842 C-0.47978125 96.5222567 -0.49134114 98.64474092 -0.49761391 100.7672348 C-0.55198353 117.48355112 -0.94661692 132.1825598 -12.953125 145.1015625 C-21.79683013 153.28373063 -32.06930442 156.59328227 -44.04296875 156.30859375 C-55.51193582 155.11170022 -65.94117019 150.31150924 -73.3125 141.3125 C-80.0881238 131.36080255 -82.91957234 121.01245526 -81.4375 109.125 C-79.41771215 98.71841095 -74.53707505 89.43873674 -66 83 C-55.19236047 76.14189446 -44.98203338 74.13783495 -32.3984375 76.00390625 C-29.25356744 76.92567851 -26.69678666 78.08095794 -23.78759766 79.56225586 C-22.44140854 80.24486732 -22.44140854 80.24486732 -21.06802368 80.94126892 C-20.38557587 81.29065018 -19.70312805 81.64003143 -19 82 C-18.99413376 81.12383026 -18.98826752 80.24766052 -18.98222351 79.34494019 C-18.9242502 71.07615726 -18.85214684 62.80764312 -18.76428509 54.53912163 C-18.71961279 50.28847027 -18.68034987 46.03791406 -18.65356445 41.78710938 C-18.62749995 37.68260348 -18.58707561 33.57846434 -18.53681374 29.47418594 C-18.52016623 27.91060076 -18.50863878 26.34695217 -18.50238609 24.78329086 C-18.49272162 22.58804897 -18.46463644 20.39374088 -18.43237305 18.19873047 C-18.42126999 16.95074677 -18.41016693 15.70276306 -18.39872742 14.41696167 C-17.7342669 8.72275548 -15.35734509 4.67650992 -11 1 C-7.33945627 -0.22018124 -3.80715737 -0.58571652 0 0 Z M-56.9453125 98.1875 C-61.44638576 102.1580285 -63.62087585 106.23780973 -64.4375 112.1875 C-64.72754386 120.01868412 -63.7586961 125.83212939 -58.45703125 131.7109375 C-53.47933864 136.38108388 -48.25394814 138.6513627 -41.5 139.375 C-33.3667679 138.50358227 -27.40617423 135.18361079 -22 129 C-18.63726978 123.73864963 -16.88260081 118.26209129 -18 112 C-19.9497105 104.27427216 -23.45079583 99.49764624 -30 95 C-39.42708048 89.94156657 -48.6840339 92.24166627 -56.9453125 98.1875 Z " fill="#000000" transform="translate(273,297)"/>
<path d="M0 0 C2.65097046 1.52099609 2.65097046 1.52099609 5 4 C5.5045219 6.89487171 5.68527986 9.20691027 5.64697266 12.1015625 C5.66011505 13.32175079 5.66011505 13.32175079 5.67352295 14.56658936 C5.69551484 17.25327018 5.68096581 19.9383027 5.6640625 22.625 C5.66743072 24.49300451 5.67228338 26.36100689 5.67855835 28.22900391 C5.68592937 32.14311599 5.67521691 36.05665739 5.65185547 39.97070312 C5.6233674 44.9882652 5.63977017 50.00449016 5.66971779 55.02200317 C5.68778466 58.87909014 5.68203558 62.73586003 5.66907883 66.59295654 C5.66574312 68.44293374 5.6698377 70.29293971 5.68147659 72.1428833 C5.69417558 74.72884373 5.67482376 77.31263845 5.64697266 79.8984375 C5.65709381 80.66323425 5.66721497 81.42803101 5.67764282 82.21600342 C5.60151123 86.03095739 5.31741278 87.66610749 2.64706421 90.47509766 C-0.61426323 92.35386049 -2.29156456 92.61807257 -6 92 C-9.33761045 89.84909549 -10.73470933 88.79587201 -12 85 C-12.10089524 82.54740406 -12.14684852 80.12316886 -12.14526367 77.67041016 C-12.14862228 76.92697861 -12.1519809 76.18354706 -12.15544128 75.41758728 C-12.16494602 72.95806206 -12.1668942 70.49860495 -12.16796875 68.0390625 C-12.17118181 66.32896903 -12.17454592 64.61887584 -12.17805481 62.90878296 C-12.18404499 59.3226457 -12.18589484 55.73653254 -12.18530273 52.15039062 C-12.18520115 47.55815674 -12.19884979 42.96607761 -12.21607494 38.37388039 C-12.22720123 34.84110812 -12.22922174 31.30837317 -12.22869301 27.77558517 C-12.22987231 26.08273155 -12.23429131 24.38987693 -12.24202538 22.69704056 C-12.25183736 20.32737691 -12.24894246 17.9580481 -12.24291992 15.58837891 C-12.24853943 14.89106155 -12.25415894 14.1937442 -12.25994873 13.47529602 C-12.22843676 8.58882217 -11.71764644 4.77899096 -8.25 1.1875 C-5.22105071 -0.41111212 -3.38597949 -0.48371136 0 0 Z " fill="#000000" transform="translate(263,166)"/>
<path d="M0 0 C2.90000514 0.60739327 4.18543046 2.06343542 5.90234375 4.3984375 C8.03973698 8.67322396 7.12932204 14.34580969 7.14257812 19.09204102 C7.15225936 21.19262661 7.18327059 23.29222325 7.21484375 25.39257812 C7.22137661 26.7343692 7.22662597 28.07616727 7.23046875 29.41796875 C7.2444873 31.24485229 7.2444873 31.24485229 7.25878906 33.10864258 C6.87167608 36.6814833 6.05193158 38.54987383 3.90234375 41.3984375 C0.7729191 42.96314983 -2.70847848 43.09545708 -6.09765625 42.3984375 C-8.19384766 40.85229492 -8.19384766 40.85229492 -10.09765625 38.3984375 C-10.49588575 35.69648792 -10.65965629 33.40929178 -10.62890625 30.7109375 C-10.63273315 29.97141846 -10.63656006 29.23189941 -10.64050293 28.4699707 C-10.64321896 26.9099796 -10.63587917 25.34994272 -10.61914062 23.79003906 C-10.59772298 21.40586564 -10.61894888 19.02470501 -10.64453125 16.640625 C-10.64188791 15.1223892 -10.63676281 13.60415527 -10.62890625 12.0859375 C-10.63700317 11.37542236 -10.6451001 10.66490723 -10.65344238 9.93286133 C-10.58845178 6.49230467 -10.33235731 4.69944101 -8.18945312 1.95117188 C-5.29526387 -0.19717589 -3.49365888 -0.16915294 0 0 Z " fill="#000000" transform="translate(296.09765625,190.6015625)"/>
<path d="M0 0 C3.50109985 2.66767102 4.84901065 4.15463488 5.63110352 8.53344727 C5.65712367 9.87751528 5.65497859 11.22233924 5.62890625 12.56640625 C5.63131821 13.2823143 5.63373016 13.99822235 5.63621521 14.73582458 C5.63523946 16.24280359 5.62191042 17.74981964 5.59692383 19.2565918 C5.56254224 21.55967057 5.5762908 23.85892336 5.59570312 26.16210938 C5.58880577 27.63022461 5.57913437 29.09832999 5.56640625 30.56640625 C5.57136612 31.25191055 5.57632599 31.93741486 5.58143616 32.64369202 C5.49859506 36.01378368 5.20080695 37.74205623 3.10546875 40.43359375 C0.65884246 42.25381108 -0.54457748 42.51409702 -3.5625 42.4375 C-4.32691406 42.43621094 -5.09132812 42.43492187 -5.87890625 42.43359375 C-8.50107711 41.89756987 -9.37652324 41.09719643 -11 39 C-12.69066316 33.92801052 -12.2253202 28.53916192 -12.24023438 23.23095703 C-12.24993395 21.13924294 -12.28096762 19.04851463 -12.3125 16.95703125 C-12.3190314 15.61979747 -12.32428133 14.2825567 -12.328125 12.9453125 C-12.3374707 11.73375488 -12.34681641 10.52219727 -12.35644531 9.27392578 C-11.96849637 5.71064127 -11.14271335 3.84238815 -9 1 C-5.86128812 -0.56935594 -3.46144178 -0.35201103 0 0 Z " fill="#000000" transform="translate(229,191)"/>
</svg>
