<?xml version="1.0" standalone="no"?>
<!DOCTYPE svg PUBLIC "-//W3C//DTD SVG 20010904//EN"
 "http://www.w3.org/TR/2001/REC-SVG-20010904/DTD/svg10.dtd">
<svg version="1.0" xmlns="http://www.w3.org/2000/svg"
 width="512.000000pt" height="512.000000pt" viewBox="0 0 512.000000 512.000000"
 preserveAspectRatio="xMidYMid meet">

<g transform="translate(0.000000,512.000000) scale(0.100000,-0.100000)"
fill="#000000" stroke="none">
<path d="M1535 3986 c-41 -18 -83 -69 -90 -109 -3 -18 -4 -622 -3 -1344 3
-1307 3 -1312 24 -1339 11 -15 33 -37 48 -48 27 -20 39 -21 406 -21 367 0 379
1 406 21 15 11 37 33 48 48 21 27 21 30 21 1366 0 1336 0 1339 -21 1366 -11
15 -33 37 -48 48 -26 20 -41 21 -394 23 -290 2 -373 0 -397 -11z"/>
<path d="M2815 3986 c-41 -18 -83 -69 -90 -109 -3 -18 -4 -622 -3 -1344 3
-1307 3 -1312 24 -1339 11 -15 33 -37 48 -48 27 -20 39 -21 406 -21 367 0 379
1 406 21 15 11 37 33 48 48 21 27 21 30 21 1366 0 1336 0 1339 -21 1366 -11
15 -33 37 -48 48 -26 20 -41 21 -394 23 -290 2 -373 0 -397 -11z"/>
</g>
</svg>
