<?xml version="1.0" standalone="no"?>
<!DOCTYPE svg PUBLIC "-//W3C//DTD SVG 20010904//EN"
 "http://www.w3.org/TR/2001/REC-SVG-20010904/DTD/svg10.dtd">
<svg version="1.0" xmlns="http://www.w3.org/2000/svg"
 width="1299.000000pt" height="1299.000000pt" viewBox="0 0 1299.000000 1299.000000"
 preserveAspectRatio="xMidYMid meet">

<g transform="translate(0.000000,1299.000000) scale(0.100000,-0.100000)"
fill="#000000" stroke="none">
<path d="M6165 12974 c-22 -2 -105 -9 -185 -14 -270 -20 -632 -76 -915 -141
-2197 -504 -3991 -2128 -4716 -4268 -167 -493 -272 -995 -321 -1541 -17 -193
-17 -857 0 -1050 113 -1252 545 -2382 1287 -3369 520 -691 1183 -1283 1930
-1721 181 -106 597 -312 795 -393 602 -248 1228 -402 1879 -462 269 -25 1089
-17 1326 14 615 78 1107 203 1646 416 1658 657 2997 1996 3654 3654 213 539
338 1031 416 1646 31 237 39 1057 14 1326 -207 2227 -1549 4198 -3545 5208
-758 383 -1513 600 -2380 681 -112 11 -805 22 -885 14z m630 -724 c1723 -94
3279 -923 4321 -2302 1142 -1513 1466 -3478 869 -5273 -236 -708 -615 -1376
-1106 -1950 -132 -154 -460 -482 -614 -614 -147 -126 -392 -312 -557 -422
-1274 -856 -2837 -1167 -4337 -865 -2448 494 -4318 2530 -4601 5009 -98 855 3
1756 285 2552 430 1211 1238 2237 2315 2941 1012 660 2229 989 3425 924z"/>
<path d="M6289 10304 c-524 -94 -939 -514 -1024 -1034 -9 -59 -15 -160 -15
-267 l0 -173 597 -2 597 -3 15 -26 c13 -24 13 -29 -2 -53 l-17 -26 -595 0
-595 0 0 -285 0 -285 594 0 595 0 15 -22 c23 -32 20 -54 -10 -77 -26 -21 -35
-21 -610 -21 l-584 0 0 -280 0 -280 590 0 c577 0 590 0 610 -20 11 -11 20 -29
20 -40 0 -11 -9 -29 -20 -40 -20 -20 -33 -20 -610 -20 l-590 0 0 -280 0 -280
590 0 c577 0 590 0 610 -20 11 -11 20 -29 20 -40 0 -11 -9 -29 -20 -40 -20
-20 -33 -20 -601 -20 l-581 0 7 -32 c76 -354 329 -685 651 -850 188 -97 364
-140 569 -141 210 -1 371 35 561 128 242 118 454 326 573 563 45 89 97 251
116 356 22 131 23 2449 0 2579 -67 385 -309 719 -655 906 -94 50 -258 105
-374 126 -109 18 -322 18 -427 -1z"/>
<path d="M4555 7276 c-39 -18 -80 -62 -99 -106 -21 -52 -30 -287 -17 -480 67
-978 491 -1665 1208 -1956 184 -74 507 -154 625 -154 16 0 30 -6 32 -12 3 -7
7 -358 10 -780 l6 -768 -526 0 c-387 0 -538 -3 -568 -12 -55 -17 -110 -74
-124 -129 -20 -80 16 -167 86 -207 l40 -22 1276 0 c1252 0 1278 0 1316 20 46
23 74 60 89 117 24 90 -34 193 -125 221 -30 9 -181 12 -568 12 l-527 0 5 48
c3 26 13 376 23 778 l17 732 55 6 c209 25 495 108 686 200 293 142 561 384
736 666 182 293 301 664 350 1095 18 153 18 546 0 607 -32 112 -151 168 -256
119 -92 -42 -109 -90 -100 -285 12 -249 -21 -571 -80 -806 -180 -711 -616
-1126 -1288 -1225 -240 -35 -541 -29 -761 16 -568 115 -949 463 -1141 1042
-92 277 -127 523 -129 897 -1 271 -4 288 -53 332 -49 45 -139 60 -198 34z"/>
</g>
</svg>
